<svg width="55" height="55" viewBox="0 0 55 55" fill="none" xmlns="http://www.w3.org/2000/svg">
<g clip-path="url(#clip0_2003_946)">
<path d="M37.95 24.56L38.47 25.44C34.45 29.08 30.02 34.52 27.68 39.16C27.16 40.19 26.53 41.75 25.9 43.43L22.51 43.45C21.95 41.99 21.3 40.67 20.61 39.56C19.02 36.99 17.07 35.21 15.67 34.14L16.07 33.22C19.69 33.7 21.3 34.6 23.31 36.17C25.76 32.82 29.94 27.51 37.95 24.56ZM50.21 50.21H4.18V18.83H50.2V50.21H50.21ZM43.95 8.37V0H37.67V8.37H16.71V0H10.46V8.37H0V54.39H54.39V8.37H43.95Z" fill="white"/>
</g>
<defs>
<clipPath id="clip0_2003_946">
<rect width="54.39" height="54.39" fill="white"/>
</clipPath>
</defs>
</svg>
