<svg width="49" height="53" viewBox="0 0 49 53" fill="none" xmlns="http://www.w3.org/2000/svg">
<g clip-path="url(#clip0_6_248)">
<path d="M44.3 24.16H38.28V35.21C38.36 40.48 39.17 42.28 41.3 42.28C43.43 42.28 44.24 40.49 44.32 35.21V24.16H44.3ZM36.44 48.32C35.01 46.27 34.25 43.51 34.25 40.27V4.03H4.03V40.27C4.03 47.74 8.66 48.32 10.07 48.32H36.45H36.44ZM10.07 52.33C3.95 52.33 0 47.6 0 40.25V0H38.25V20.15H48.32V38.27C48.3 38.95 48.32 39.66 48.34 40.34C48.42 44.17 48.34 52.34 41.27 52.34L10.06 52.32L10.07 52.33ZM26.18 16.11H8.05V20.14H26.17V16.11H26.18ZM8.05 12.08H30.2V8.05H8.05V12.08ZM8.05 26.17H28.22V40.26H8.05V26.17Z" fill="white"/>
</g>
<defs>
<clipPath id="clip0_6_248">
<rect width="48.36" height="52.35" fill="white"/>
</clipPath>
</defs>
</svg>
