<svg width="47" height="48" viewBox="0 0 47 48" fill="none" xmlns="http://www.w3.org/2000/svg">
<g clip-path="url(#clip0_2003_1155)">
<path d="M41.98 9.15C41.98 5.52 40 3.36 36.69 3.36C34.51 3.36 31.89 4.52 31.89 10.09H28.53C28.53 7.57 27.91 3.36 23.73 3.36C20.42 3.36 18.44 5.53 18.44 9.15C18.44 12.44 20.59 14.14 24.08 16.66C26.28 18.24 28.67 19.95 30.21 22.44C31.75 19.92 34.16 18.21 36.37 16.61C39.85 14.12 41.98 12.43 41.98 9.15ZM45.34 9.15C45.34 14.31 41.61 16.99 38.32 19.34C35.33 21.49 32.69 23.39 32.06 26.86H28.36C27.71 23.42 25.09 21.52 22.11 19.37C18.82 17 15.07 14.3 15.07 9.14C15.08 3.68 18.56 0 23.73 0C26.57 0 28.8 1.23 30.21 3.43C31.62 1.23 33.85 0 36.69 0C41.86 0 45.34 3.68 45.34 9.15ZM47.01 38.44C45.31 39.18 43.03 40.37 42.36 40.66C38.35 42.39 27.67 47.02 23.87 47.02C18.46 47.02 13.09 43.09 7.23001 43.09C3.57001 43.09 0.0100098 43.98 0.0100098 43.98V30.36H3.45001C6.00001 30.36 7.03001 28.98 9.06001 27.17C11.28 25.2 15.22 25.31 18.78 26.77C22.34 28.23 28.42 29.79 30.2 30.33C31.27 30.65 33.16 31.3 33.78 31.79L33.39 34.22C32.77 34.34 31.31 34.42 29.17 34.32C27.09 34.22 23.63 34 22.03 33.9C21.54 33.87 21.11 34.2 21.01 34.67C20.91 35.14 21.16 35.61 21.61 35.8C22.43 36.14 23.88 36.57 25.61 37.18C30.77 38.99 34.64 38.84 37.74 38.04C40.83 37.23 44.07 35.72 46.32 36.73L47.01 38.44Z" fill="white"/>
</g>
<defs>
<clipPath id="clip0_2003_1155">
<rect width="47.01" height="47.02" fill="white"/>
</clipPath>
</defs>
</svg>
