<svg width="70" height="56" viewBox="0 0 70 56" fill="none" xmlns="http://www.w3.org/2000/svg">
<g clip-path="url(#clip0_6_79)">
<path d="M32.5 28.45L6.59 16.75L32.51 5.42L58.43 16.75L32.51 28.45H32.5ZM50.07 42.57C49.7 43.99 43.88 50.4 32.5 50.4C21.12 50.4 15.33 43.99 14.93 42.57V25.97L32.5 33.85L50.07 25.97V42.57ZM69.58 39.26C69.58 39.26 69.13 28.85 68.24 23.85C67.27 18.41 64.64 14.43 60.64 12.49L60.59 12.44L32.5 0L0 14.44V19.41L9.99 23.73V42.22C9.99 46.47 19.04 55.02 32.51 55.02C45.98 55.02 55.02 46.45 55.02 42.22V23.73L59.29 21.89C62.2 22.83 61.78 32.87 59.54 39.26H69.58Z" fill="white"/>
</g>
<defs>
<clipPath id="clip0_6_79">
<rect width="69.58" height="55.02" fill="white"/>
</clipPath>
</defs>
</svg>
