<svg width="283" height="57" viewBox="0 0 283 57" fill="none" xmlns="http://www.w3.org/2000/svg">
<g clip-path="url(#clip0_6_76)">
<path d="M27.98 24.1C25.21 24.1 23.66 21.48 23.66 16.74C23.66 12 25.21 9.38 27.98 9.38C30.75 9.38 32.3 11.97 32.3 16.74C32.3 21.51 30.75 24.1 27.98 24.1ZM27.98 7.4C22.33 7.4 19.2 11.6 19.2 16.74C19.2 21.88 22.33 26.08 27.98 26.08C33.63 26.08 36.76 21.88 36.76 16.74C36.76 11.6 33.63 7.4 27.98 7.4ZM67.22 7.4C64.56 7.4 63.08 8.55 62.26 10.02H62.04V7.76H57.79V25.72H62.04V14.11C62.04 11.45 63.41 9.91 65.6 9.91C67.79 9.91 68.66 11.31 68.66 13.43V25.71H72.91V13.4C72.91 9.7 70.96 7.4 67.22 7.4ZM82.54 7.4C78.62 7.4 75.67 9.05 75.67 12.57C75.67 15.55 77.72 17.17 80.02 17.74L83.62 18.64C85.52 19.11 86.39 19.79 86.39 21.3C86.39 23.13 85.1 24.17 82.83 24.17C80.38 24.17 79.13 22.99 78.73 20L74.92 21.08C75.14 24.17 78.02 26.07 82.37 26.07C87.23 26.07 89.85 23.81 89.85 20.22C89.85 16.85 87.51 15.44 85.07 14.83L81.62 13.97C79.89 13.54 79.14 12.75 79.14 11.6C79.14 10.16 80.36 9.3 82.2 9.3C84.36 9.3 85.69 10.48 85.87 12.75L89.47 11.67C89.04 9.15 86.55 7.39 82.56 7.39M100.38 24.1C97.61 24.1 96.06 21.48 96.06 16.74C96.06 12 97.61 9.38 100.38 9.38C103.15 9.38 104.7 11.97 104.7 16.74C104.7 21.55 103.15 24.1 100.38 24.1ZM100.38 7.4C94.73 7.4 91.6 11.6 91.6 16.74C91.6 21.88 94.73 26.08 100.38 26.08C106.03 26.08 109.16 21.88 109.16 16.74C109.16 11.6 106.03 7.4 100.38 7.4ZM121.1 7.4C118.44 7.4 116.96 8.55 116.14 10.02H115.92V7.76H111.67V25.72H115.92V14.11C115.92 11.45 117.29 9.91 119.48 9.91C121.67 9.91 122.54 11.31 122.54 13.43V25.71H126.79V13.4C126.79 9.7 124.84 7.4 121.1 7.4ZM184.15 24.1C181.38 24.1 179.83 21.48 179.83 16.74C179.83 12 181.38 9.38 184.15 9.38C186.92 9.38 188.47 11.97 188.47 16.74C188.47 21.51 186.92 24.1 184.15 24.1ZM184.15 7.4C178.5 7.4 175.37 11.6 175.37 16.74C175.37 21.88 178.5 26.08 184.15 26.08C189.8 26.08 192.93 21.88 192.93 16.74C192.93 11.6 189.8 7.4 184.15 7.4ZM223.39 7.4C220.73 7.4 219.25 8.55 218.43 10.02H218.21V7.76H213.96V25.72H218.21V14.11C218.21 11.45 219.58 9.91 221.77 9.91C223.96 9.91 224.83 11.31 224.83 13.43V25.71H229.08V13.4C229.08 9.7 227.14 7.4 223.39 7.4ZM238.71 7.4C234.79 7.4 231.84 9.05 231.84 12.57C231.84 15.55 233.89 17.17 236.19 17.74L239.79 18.64C241.69 19.11 242.56 19.79 242.56 21.3C242.56 23.13 241.26 24.17 239 24.17C236.55 24.17 235.29 22.99 234.9 20L231.09 21.08C231.31 24.17 234.19 26.07 238.53 26.07C243.39 26.07 246.01 23.81 246.01 20.22C246.01 16.85 243.67 15.44 241.23 14.83L237.78 13.97C236.05 13.54 235.3 12.75 235.3 11.6C235.3 10.16 236.52 9.3 238.36 9.3C240.52 9.3 241.85 10.48 242.03 12.75L245.63 11.67C245.2 9.15 242.71 7.39 238.72 7.39M256.55 24.1C253.78 24.1 252.23 21.48 252.23 16.74C252.23 12 253.78 9.38 256.55 9.38C259.32 9.38 260.87 11.97 260.87 16.74C260.87 21.51 259.32 24.1 256.55 24.1ZM256.55 7.4C250.9 7.4 247.77 11.6 247.77 16.74C247.77 21.88 250.9 26.08 256.55 26.08C262.2 26.08 265.33 21.88 265.33 16.74C265.33 11.6 262.2 7.4 256.55 7.4ZM277.27 7.4C274.61 7.4 273.13 8.55 272.31 10.02H272.09V7.76H267.84V25.72H272.09V14.11C272.09 11.45 273.46 9.91 275.65 9.91C277.84 9.91 278.71 11.31 278.71 13.43V25.71H282.96V13.4C282.96 9.7 281.01 7.4 277.27 7.4ZM16.69 0.58H12.23V19.15C12.23 22.17 11.08 23.96 8.33999 23.96C5.59999 23.96 4.44999 22.06 4.44999 18.79V15.34L-0.0100098 16.45V18C-0.0100098 22.7 2.32999 26.3 8.33999 26.3C14.35 26.3 16.68 22.71 16.68 18V0.58M43.52 0.58H39.27V25.72H43.52V14.12C43.52 11.46 44.89 9.92 47.08 9.92C49.27 9.92 50.14 11.32 50.14 13.44V25.72H54.39V13.41C54.39 9.71 52.44 7.41 48.7 7.41C46.04 7.41 44.56 8.56 43.74 10.03H43.52V0.58ZM172.85 0.58H168.39V19.15C168.39 22.17 167.24 23.96 164.5 23.96C161.76 23.96 160.62 22.06 160.62 18.79V15.34L156.16 16.45V18C156.16 22.7 158.5 26.3 164.51 26.3C170.52 26.3 172.85 22.71 172.85 18V0.58ZM199.68 0.58H195.43V25.72H199.68V14.12C199.68 11.46 201.05 9.92 203.24 9.92C205.43 9.92 206.3 11.32 206.3 13.44V25.72H210.55V13.41C210.55 9.71 208.61 7.41 204.86 7.41C202.2 7.41 200.72 8.56 199.9 10.03H199.68V0.58ZM140.77 23.67C137.32 23.67 135.19 20.87 135.19 17.88C135.19 16.01 136.02 14.29 137.38 13.32L145.51 22.19C144 23.09 142.31 23.66 140.76 23.66M148.69 19.25L141.64 11.49C142.9 10.99 144.12 10.8 145.13 10.8C148.05 10.8 149.84 12.49 149.84 15.4C149.84 16.7 149.48 18.03 148.69 19.25ZM140.66 10.45L139.11 8.72C137.74 7.21 137.35 6.28 137.35 5.17C137.35 3.09 138.68 1.9 140.77 1.9C142.86 1.9 144.15 3.12 144.15 5.35C144.15 7.4 143.15 9.34 140.67 10.45M140.88 0C135.92 0 133.47 2.77 133.47 6.21C133.47 8.07 134.26 9.94 136.35 12.21L136.39 12.28C132.87 13.97 131.25 16.7 131.25 19.5C131.25 23.2 134.09 26.29 138.48 26.29C141 26.29 143.95 25.25 146.61 23.38L148.77 25.71H154.42V25.53L149.82 20.47C151.76 18.17 152.88 15.66 152.88 13.46C152.88 10.73 151.04 8.9 148.17 8.9C146.66 8.9 144.97 9.33 143.85 9.76L143.78 9.62C146.51 8.15 147.67 6.78 147.67 4.88C147.67 2.16 145.22 0 140.9 0M33.23 45.46C33.63 42.3 35.24 40.5 38.09 40.5C40.94 40.5 42.37 42.12 42.44 45.46H33.23ZM38.09 38.06C33.34 38.06 30.03 41.4 30.03 47.54C30.03 53.68 33.09 56.74 38.09 56.74C42.19 56.74 44.78 54.41 45.43 50.89L42.7 50.17C42.23 53.19 40.62 54.23 38.38 54.23C34.82 54.23 33.24 51.61 33.13 47.58H45.47V46.58C45.48 40.28 42.06 38.06 38.1 38.06M87.36 45.46C87.76 42.3 89.37 40.5 92.22 40.5C95.07 40.5 96.5 42.12 96.57 45.46H87.36ZM92.22 38.06C87.47 38.06 84.16 41.4 84.16 47.54C84.16 53.68 87.22 56.74 92.22 56.74C96.32 56.74 98.91 54.41 99.56 50.89L96.83 50.17C96.36 53.19 94.75 54.23 92.51 54.23C88.95 54.23 87.37 51.61 87.26 47.58H99.6V46.58C99.61 40.28 96.19 38.06 92.23 38.06M110.88 38.06C105.95 38.06 102.6 41.51 102.6 47.58C102.6 53.65 105.87 56.74 110.73 56.74C115.12 56.74 117.6 54.05 118.1 50.35L115.26 49.66C114.75 53.03 113.31 54.18 110.94 54.18C107.49 54.18 105.72 51.67 105.72 47.35C105.72 43.03 107.59 40.6 110.79 40.6C113.06 40.6 114.71 41.71 115.25 44.91L118.09 44.22C117.59 40.56 115.11 38.05 110.86 38.05M25.9 31.23H21.15L13.7 51.49L6.21999 31.23H1.25999V56.37H4.38999V34.72L12.41 56.38H14.82L22.77 34.69V56.38H25.9V31.24M56.54 54.19C53.59 54.19 51.61 52.07 51.61 47.4C51.61 42.73 53.59 40.61 56.54 40.61C59.49 40.61 61.47 42.69 61.47 47.4C61.47 52.11 59.49 54.19 56.54 54.19ZM64.38 31.23H61.4V41.86C60.75 39.88 59.17 38.05 56.04 38.05C52.01 38.05 48.49 41.21 48.49 47.5C48.49 53.79 52.01 56.73 55.79 56.73C58.63 56.73 60.72 55.08 61.4 52.74V54.11C61.4 54.93 61.47 55.84 61.58 56.37H64.6C64.46 55.51 64.38 54.25 64.38 52.64V31.23ZM87.04 31.23H67.61V33.85H75.78V56.37H78.91V33.85H87.04V31.23ZM124.51 31.23H121.52V56.37H124.51V44.56C124.51 42.05 125.77 40.36 128.43 40.36C131.09 40.36 132.32 42.05 132.32 44.56V56.38H135.31V43.95C135.31 40.58 133.23 38.06 129.52 38.06C127.04 38.06 125.2 39.17 124.52 41.19V31.23" fill="#D91700"/>
</g>
<defs>
<clipPath id="clip0_6_76">
<rect width="282.95" height="56.74" fill="white"/>
</clipPath>
</defs>
</svg>
