<svg width="66" height="61" viewBox="0 0 66 61" fill="none" xmlns="http://www.w3.org/2000/svg">
<g clip-path="url(#clip0_6_165)">
<path d="M30.57 43.6001C30.57 45.6901 30.61 47.6901 30.53 49.6901C30.51 50.0501 29.96 50.6701 29.65 50.6801C27.65 50.7201 25.61 50.8301 23.65 50.5101C20.38 49.9801 18.34 47.9401 17.64 44.6501C17.13 42.2601 16.63 39.8701 16.11 37.4601C15.27 38.7301 14.65 44.0101 15.02 48.7101C15.33 52.5501 15.92 56.3601 16.4 60.3101H0C0.25 50.0601 0.8 39.9301 4.81 30.3701C5.49 28.7401 6.49 27.2001 7.56 25.7701C8.29 24.8001 9.3 23.9401 10.35 23.3101C14.44 20.8401 18.54 22.4801 19.78 27.0701C20.45 29.5301 20.91 32.0501 21.51 34.5301C21.88 36.0601 22.38 37.5601 22.79 39.0801C23.47 41.6201 25.27 42.8001 27.74 43.1801C28.64 43.3201 29.55 43.4501 30.58 43.6001H30.57Z" fill="white"/>
<path d="M65.61 60.52C65.08 60.52 64.61 60.52 64.13 60.52C59.18 60.52 54.22 60.52 49.11 60.52C50.72 52.73 51.48 45.07 49.7 37.31C49.17 39.74 48.6 42.16 48.11 44.6C47.44 47.92 45.39 49.94 42.14 50.5C39.93 50.88 37.65 50.79 35.29 50.92V43.63C36.48 43.42 37.7 43.22 38.9 42.97C40.95 42.55 42.33 41.35 42.87 39.31C43.83 35.63 44.77 31.95 45.68 28.25C46.3 25.76 47 23.3 49.86 22.52C52.91 21.69 55.44 22.8 57.54 24.99C60.43 28 61.77 31.79 62.84 35.7C65.01 43.57 65.66 51.64 65.73 59.77C65.73 59.97 65.67 60.18 65.62 60.53L65.61 60.52Z" fill="white"/>
<path d="M39.7 9.55C39.72 4.2 43.91 0 49.24 0C54.6 0 58.88 4.29 58.86 9.67C58.84 14.94 54.56 19.21 49.28 19.24C43.94 19.27 39.68 14.96 39.7 9.55ZM49.28 14.42C51.95 14.42 54.21 12.15 54.17 9.54C54.13 6.98 51.89 4.77 49.33 4.74C46.66 4.71 44.42 6.91 44.42 9.58C44.42 12.3 46.55 14.43 49.29 14.42H49.28Z" fill="white"/>
<path d="M6.62995 9.58004C6.64995 4.17004 10.8999 -0.0399615 16.2999 3.8531e-05C21.6399 0.0400385 25.8299 4.38004 25.7799 9.79004C25.7299 15 21.2799 19.34 16.0799 19.24C10.7499 19.14 6.59995 14.91 6.61995 9.58004H6.62995ZM16.1999 14.42C18.8699 14.42 21.1599 12.14 21.1099 9.55004C21.0599 6.99004 18.8399 4.78004 16.2699 4.74004C13.6099 4.69004 11.3499 6.91004 11.3399 9.57004C11.3399 12.29 13.4699 14.43 16.1999 14.42Z" fill="white"/>
</g>
<defs>
<clipPath id="clip0_6_165">
<rect width="65.73" height="60.52" fill="white"/>
</clipPath>
</defs>
</svg>
