<svg width="45" height="45" viewBox="0 0 45 45" fill="none" xmlns="http://www.w3.org/2000/svg">
<g clip-path="url(#clip0_9_9047)">
<path d="M0 28.8199C0 27.9899 0 27.1699 0 26.3399C0 25.5099 0.44 25.0799 1.26 25.0699C1.93 25.0699 2.59 25.0699 3.26 25.0699C3.96 25.0699 4.5 24.7999 4.77 24.1199C5.04 23.4599 4.88 22.8799 4.38 22.3799C3.9 21.8999 3.41 21.4099 2.94 20.9199C2.4 20.3599 2.39 19.7399 2.94 19.1899C4.13 17.9899 5.32 16.8099 6.52 15.6299C7.08 15.0799 7.72 15.0899 8.29 15.6299C8.78 16.0999 9.26 16.5899 9.74 17.0799C10.23 17.5699 10.8 17.7099 11.44 17.4699C12.06 17.2399 12.39 16.6999 12.39 15.9699C12.39 15.2999 12.39 14.6399 12.39 13.9699C12.4 13.1499 12.85 12.6999 13.66 12.6899C15.33 12.6899 17 12.6899 18.66 12.6899C19.45 12.6899 19.9 13.1399 19.91 13.9299C19.91 14.6099 19.91 15.2999 19.91 15.9799C19.91 16.6699 20.21 17.1699 20.85 17.4399C21.49 17.7099 22.06 17.5799 22.56 17.0999C23.06 16.6099 23.55 16.1099 24.05 15.6299C24.6 15.0999 25.23 15.0799 25.78 15.6199C26.99 16.8099 28.19 18.0099 29.39 19.2299C29.93 19.7799 29.92 20.3999 29.39 20.9599C28.93 21.4399 28.45 21.9099 27.98 22.3799C27.48 22.8699 27.29 23.4499 27.56 24.1099C27.83 24.7999 28.39 25.0799 29.11 25.0799C29.78 25.0799 30.44 25.0799 31.11 25.0799C31.87 25.0899 32.32 25.5299 32.32 26.2999C32.32 27.9999 32.32 29.6999 32.32 31.3999C32.32 32.1299 31.87 32.5899 31.13 32.6099C30.42 32.6299 29.7 32.6099 28.99 32.6099C28.31 32.6099 27.83 32.9199 27.57 33.5399C27.31 34.1499 27.41 34.7299 27.88 35.2099C28.35 35.6999 28.85 36.1799 29.32 36.6699C29.94 37.3099 29.95 37.9199 29.32 38.5399C28.17 39.6999 27.01 40.8599 25.85 42.0099C25.22 42.6399 24.63 42.6299 23.99 42.0099C23.54 41.5599 23.09 41.1199 22.64 40.6599C22.15 40.1599 21.56 39.9799 20.9 40.2499C20.21 40.5199 19.93 41.0799 19.93 41.7999C19.93 42.4499 19.93 43.0999 19.93 43.7499C19.92 44.5799 19.49 45.0199 18.67 45.0299C17 45.0299 15.33 45.0299 13.67 45.0299C12.86 45.0299 12.41 44.5699 12.4 43.7499C12.4 43.0699 12.4 42.3799 12.4 41.6999C12.4 41.0299 12.11 40.5299 11.49 40.2699C10.86 39.9999 10.27 40.0999 9.78 40.5799C9.29 41.0499 8.82 41.5499 8.33 42.0299C7.71 42.6399 7.11 42.6399 6.5 42.0299C5.33 40.8699 4.16 39.6999 3 38.5199C2.39 37.9099 2.4 37.3099 3 36.6899C3.47 36.2099 3.94 35.7399 4.41 35.2699C4.91 34.7699 5.06 34.1799 4.78 33.5199C4.51 32.8799 3.99 32.5999 3.3 32.6099C2.63 32.6099 1.97 32.6099 1.3 32.6099C0.46 32.5999 0.01 32.1499 0.01 31.2999C0.01 30.4699 0.01 29.6499 0.01 28.8199H0ZM23.46 28.8499C23.46 24.8099 20.22 21.5499 16.22 21.5499C12.17 21.5499 8.91 24.7899 8.9 28.8299C8.9 32.8399 12.2 36.1299 16.22 36.1199C20.2 36.1099 23.47 32.8299 23.46 28.8599V28.8499Z" fill="#D91700"/>
<path d="M20.09 5.27C19.31 6.04 18.64 6.72 17.93 7.42C18.18 7.66 18.44 7.89 18.68 8.14C19.18 8.64 19.2 9.33 18.74 9.8C18.3 10.25 17.61 10.26 17.11 9.8C16.57 9.29 16.03 8.76 15.52 8.22C15.04 7.71 15.03 7.1 15.52 6.6C16.73 5.36 17.95 4.14 19.19 2.92C19.71 2.41 20.36 2.43 20.89 2.94C21.39 3.41 21.86 3.9 22.35 4.38C22.89 4.9 23.52 5.03 24.19 4.71C24.79 4.43 25.03 3.92 25.04 3.28C25.04 2.6 25.04 1.91 25.04 1.23C25.05 0.44 25.5 0 26.3 0C27.97 0 29.64 0 31.3 0C32.11 0 32.56 0.46 32.58 1.27C32.59 1.97 32.58 2.67 32.58 3.37C32.58 4 32.84 4.49 33.42 4.75C34.03 5.01 34.64 4.99 35.15 4.5C35.66 4.02 36.14 3.51 36.64 3.02C37.27 2.4 37.89 2.4 38.52 3.01C39.69 4.16 40.85 5.31 42.01 6.47C42.65 7.11 42.64 7.72 42 8.37C41.54 8.83 41.08 9.3 40.62 9.75C40.09 10.27 40 10.89 40.27 11.54C40.53 12.16 41.05 12.42 41.72 12.41C42.39 12.4 43.05 12.4 43.72 12.41C44.53 12.42 44.98 12.88 44.98 13.7C44.98 15.37 44.98 17.04 44.98 18.71C44.98 19.5 44.53 19.95 43.74 19.96C43.06 19.96 42.37 19.96 41.69 19.96C41.03 19.96 40.49 20.2 40.23 20.84C39.96 21.49 40.05 22.11 40.58 22.64C41.07 23.12 41.55 23.6 42.03 24.09C42.57 24.65 42.58 25.27 42.04 25.82C40.85 27.03 39.65 28.23 38.43 29.43C37.89 29.96 37.25 29.95 36.7 29.43C36.15 28.9 35.61 28.36 35.08 27.81C34.61 27.32 34.6 26.64 35.05 26.19C35.51 25.73 36.2 25.74 36.71 26.23C37 26.5 37.28 26.78 37.52 27.03C38.23 26.35 38.94 25.67 39.76 24.89C39.47 24.65 39.19 24.45 38.95 24.21C37.73 22.95 37.53 21.5 38.16 19.9C38.68 18.58 40.07 17.71 41.66 17.69C41.99 17.69 42.32 17.69 42.67 17.69V14.72C42.31 14.72 41.96 14.72 41.6 14.72C40.01 14.72 38.62 13.86 38.09 12.55C37.45 10.94 37.64 9.47 38.87 8.2C39.1 7.96 39.37 7.76 39.58 7.57C38.83 6.83 38.15 6.15 37.41 5.41C37.23 5.6 37 5.88 36.73 6.12C35.53 7.23 34.15 7.53 32.64 6.92C31.08 6.3 30.3 5.09 30.23 3.42C30.22 3.07 30.23 2.72 30.23 2.34H27.26C27.26 2.72 27.26 3.1 27.26 3.47C27.22 5.03 26.51 6.2 25.09 6.83C23.59 7.5 22.14 7.31 20.88 6.18C20.59 5.92 20.35 5.59 20.07 5.28L20.09 5.27Z" fill="#D91700"/>
<path d="M36.1 16.0901C36.06 17.8801 35.54 19.3901 34.5 20.7001C33.95 21.4001 33.32 21.5501 32.74 21.1301C32.28 20.8001 32.12 20.0301 32.65 19.3101C33.86 17.6501 34.01 15.8301 33.04 14.0101C32.11 12.2501 30.56 11.3701 28.57 11.3601C27.44 11.3601 26.44 11.7701 25.53 12.4401C24.81 12.9701 23.92 12.6901 23.69 11.8801C23.54 11.3401 23.77 10.9301 24.18 10.5901C27.07 8.14009 31.4 8.36009 34.03 11.0801C35.41 12.5101 36.07 14.2301 36.1 16.0801V16.0901Z" fill="#D91700"/>
</g>
<defs>
<clipPath id="clip0_9_9047">
<rect width="45" height="45.01" fill="white"/>
</clipPath>
</defs>
</svg>
