<svg width="44" height="44" viewBox="0 0 44 44" fill="none" xmlns="http://www.w3.org/2000/svg">
<g clip-path="url(#clip0_9_9042)">
<path d="M1.62 0C2.36 0.34 2.57 0.93 2.57 1.72C2.55 14.67 2.56 27.62 2.56 40.57V41.17H3.13C16.12 41.17 29.12 41.17 42.11 41.17C43.13 41.17 43.73 41.64 43.73 42.45C43.73 43.26 43.13 43.73 42.11 43.73C28.65 43.73 15.18 43.73 1.72 43.74C0.93 43.74 0.34 43.53 0 42.79V0.94C0.2 0.52 0.52 0.2 0.94 0H1.62Z" fill="#D91700"/>
<path d="M38.9499 -1.95317e-05C39.7199 0.34998 39.9699 0.95998 39.8999 1.75998C39.8699 2.06998 39.7899 2.45998 39.9399 2.67998C40.0799 2.87998 40.4899 2.89998 40.7799 2.99998C41.6999 3.31998 42.5099 3.79998 43.0899 4.59998C43.5799 5.26998 43.5199 6.03998 42.9299 6.49998C42.3499 6.95998 41.5999 6.80998 41.0599 6.16998C40.2799 5.25998 39.2199 5.10998 38.1399 5.24998C37.5599 5.32998 36.9499 5.56998 36.4499 5.87998C35.8099 6.27998 35.8999 7.00998 36.6199 7.24998C37.4699 7.51998 38.3599 7.63998 39.2299 7.85998C40.0699 8.06998 40.9399 8.20998 41.7199 8.54998C44.1199 9.61998 44.4499 12.61 42.3799 14.23C41.6599 14.8 40.8399 15.12 39.8899 15.33C39.8899 15.74 39.8899 16.16 39.8899 16.58C39.8899 17.44 39.3499 18.02 38.5899 18.01C37.8499 18 37.3399 17.42 37.3299 16.58C37.3299 16.27 37.3099 15.95 37.3299 15.64C37.3499 15.39 37.2499 15.31 37.0099 15.25C35.8199 14.96 34.7699 14.43 34.0499 13.38C33.6899 12.85 33.7099 12.21 34.0999 11.76C34.4599 11.34 35.0699 11.2 35.5799 11.44C35.7399 11.52 35.9099 11.62 36.0199 11.76C36.8199 12.8 37.9499 12.97 39.1299 12.83C39.6699 12.76 40.2399 12.54 40.7099 12.26C41.4199 11.83 41.3399 11.07 40.5499 10.82C39.7199 10.55 38.8299 10.44 37.9799 10.23C37.1399 10.02 36.2699 9.87998 35.4899 9.53998C33.0999 8.47998 32.7699 5.51998 34.8099 3.87998C35.5299 3.29998 36.3699 2.96998 37.3299 2.74998C37.3299 2.40998 37.3599 2.04998 37.3299 1.69998C37.2599 0.89998 37.5399 0.31998 38.2699 -0.0200195H38.9499V-1.95317e-05Z" fill="#D91700"/>
<path d="M0.94 0C0.52 0.2 0.2 0.52 0 0.94V0H0.94Z" fill="#D91700"/>
<path d="M12.81 38.5899H5.14001V11.2399C7.22001 13.3299 9.33001 15.4299 11.45 17.5499C11.65 17.3599 11.77 17.2599 11.88 17.1499C13.95 15.0799 16.03 12.9999 18.1 10.9299C18.89 10.1399 19.55 10.1399 20.34 10.9299C27.11 17.6499 33.88 24.3699 40.64 31.0899C40.79 31.2399 40.9 31.4299 41.02 31.5999C41.07 31.5699 41.12 31.5399 41.17 31.5099C41.17 30.8599 41.16 30.2199 41.17 29.5699C41.2 28.5899 42.17 27.9999 43.02 28.4299C43.48 28.6599 43.72 29.0499 43.73 29.5599C43.73 31.2699 43.74 32.9799 43.73 34.6799C43.73 35.4099 43.19 35.9599 42.46 35.9599C40.75 35.9699 39.04 35.9699 37.34 35.9599C36.61 35.9599 36.06 35.3899 36.05 34.6899C36.05 33.9799 36.61 33.4199 37.36 33.3999C37.98 33.3899 38.6 33.3999 39.15 33.3999C37.24 31.4499 35.31 29.4699 33.32 27.4499V38.5799H25.62V38.0799C25.62 32.1199 25.62 26.1499 25.62 20.1899C25.62 19.8999 25.54 19.6899 25.33 19.4799C24.6 18.7599 23.89 18.0199 23.08 17.3299V38.5699H15.37V17.2699C14.49 18.1399 13.69 18.9399 12.9 19.7499C12.81 19.8499 12.81 20.0699 12.81 20.2299C12.81 26.1699 12.81 32.0999 12.81 38.0399V38.5799V38.5899Z" fill="#D91700"/>
</g>
<defs>
<clipPath id="clip0_9_9042">
<rect width="43.75" height="43.75" fill="white"/>
</clipPath>
</defs>
</svg>
