<svg width="70" height="70" viewBox="0 0 70 70" fill="none" xmlns="http://www.w3.org/2000/svg">
<path d="M70 0H0V70H70V0Z" fill="#776B64"/>
<path d="M10.1301 52.4901V17.5201C10.4601 16.8701 10.9201 16.4601 11.7001 16.3201C14.6601 15.8001 17.6101 15.2201 20.5701 14.6701C25.7801 13.6901 30.9901 12.7101 36.2001 11.7301C37.2301 11.5401 38.0801 12.2201 38.1101 13.2601C38.1301 14.1701 38.1101 15.0701 38.1101 15.9801C38.1101 16.6101 38.1101 17.2301 38.1101 17.9001C38.3501 17.9001 38.5401 17.9001 38.7301 17.9001C45.1401 17.9001 51.5501 17.9001 57.9601 17.9001C59.3101 17.9001 59.8701 18.4601 59.8701 19.8201C59.8701 29.9401 59.8701 40.0601 59.8701 50.1701C59.8701 51.5301 59.3201 52.0901 57.9601 52.0901C51.5301 52.0901 45.1101 52.0901 38.6801 52.0901H38.1001C38.1001 53.6401 38.1001 55.1101 38.1001 56.5801C38.1001 57.7801 37.2701 58.4601 36.0901 58.2501C28.0301 56.7401 19.9801 55.2301 11.9201 53.7401C11.1001 53.5901 10.4501 53.2901 10.1201 52.4901H10.1301ZM38.1301 42.7801C39.6701 42.7801 41.1601 42.7801 42.6401 42.7801C43.6301 42.7801 44.3301 43.4401 44.3201 44.3401C44.3201 45.2401 43.6201 45.8801 42.6201 45.8801C41.2901 45.8801 39.9601 45.8801 38.6401 45.8801C38.4701 45.8801 38.3001 45.8801 38.1301 45.8801V48.9601H56.7201V21.0301H38.1301V24.1201C39.6501 24.1201 41.1301 24.1201 42.6201 24.1201C43.6201 24.1201 44.3101 24.7701 44.3101 25.6701C44.3101 26.5701 43.6201 27.2201 42.6201 27.2301C41.2901 27.2301 39.9601 27.2301 38.6401 27.2301C38.4701 27.2301 38.3001 27.2301 38.1301 27.2301V30.3401C39.6401 30.3401 41.1101 30.3401 42.5801 30.3401C43.6101 30.3401 44.3101 30.9901 44.3001 31.9101C44.3001 32.8101 43.6001 33.4401 42.5901 33.4501C41.2601 33.4501 39.9301 33.4501 38.6101 33.4501C38.4401 33.4501 38.2701 33.4501 38.1101 33.4501V36.5601H38.6101C39.8201 36.5601 41.0401 36.5601 42.2501 36.5601C43.5601 36.5601 44.2801 37.1101 44.2901 38.1001C44.2901 39.1001 43.5701 39.6701 42.2701 39.6701C41.2701 39.6701 40.2601 39.6701 39.2601 39.6701H38.0901V42.7801H38.1301ZM26.6001 34.5901C26.7101 34.4401 26.8001 34.3201 26.8901 34.2101C28.4101 32.2601 29.9301 30.3001 31.4501 28.3501C31.8001 27.9101 32.0001 27.4301 31.8501 26.8701C31.6801 26.2501 31.2701 25.8601 30.6501 25.7301C29.9801 25.5901 29.4501 25.8601 29.0401 26.3901C27.7601 28.0401 26.4801 29.6901 25.2001 31.3301C24.9801 31.6101 24.7701 31.8801 24.5301 32.1901C24.3901 32.0401 24.2801 31.9301 24.1701 31.8101C23.0401 30.5201 21.9101 29.2201 20.7801 27.9401C20.0601 27.1301 19.1301 27.0201 18.4301 27.6401C17.7401 28.2601 17.7401 29.1701 18.4301 29.9701C18.6101 30.1801 18.7901 30.3801 18.9701 30.5901C20.1601 31.9501 21.3501 33.3201 22.5601 34.7001C22.4501 34.8501 22.3601 34.9801 22.2601 35.1001C20.9601 36.7701 19.6601 38.4501 18.3601 40.1201C18.0301 40.5501 17.8201 41.0101 17.9501 41.5601C18.1001 42.1801 18.4901 42.5701 19.1101 42.7301C19.8101 42.9001 20.3501 42.6301 20.7701 42.0901C21.9601 40.5701 23.1301 39.0501 24.3201 37.5301C24.4201 37.4001 24.5401 37.2601 24.6701 37.1101C24.9301 37.4101 25.1501 37.6601 25.3801 37.9101C26.6301 39.3301 27.8701 40.7701 29.1201 42.1801C29.7701 42.9101 30.6901 42.9901 31.3601 42.4101C32.0501 41.8101 32.0801 40.8901 31.4301 40.1201C31.2401 39.9001 31.0501 39.6801 30.8601 39.4601C29.4501 37.8501 28.0501 36.2501 26.6101 34.6001L26.6001 34.5901Z" fill="white"/>
<path d="M50.5502 27.2302C50.0302 27.2302 49.5102 27.2402 49.0002 27.2302C48.1102 27.2002 47.4502 26.5402 47.4502 25.6902C47.4502 24.8402 48.1002 24.1502 48.9802 24.1302C50.0302 24.1102 51.0802 24.1102 52.1302 24.1302C53.0102 24.1502 53.6702 24.8402 53.6602 25.6902C53.6602 26.5402 52.9902 27.2002 52.1102 27.2302C51.5902 27.2502 51.0802 27.2302 50.5602 27.2302H50.5502Z" fill="white"/>
<path d="M50.5299 33.45C50.0099 33.45 49.4899 33.46 48.9799 33.45C48.0999 33.42 47.4399 32.75 47.4399 31.9C47.4399 31.05 48.0999 30.37 48.9799 30.35C50.0099 30.33 51.0499 30.33 52.0799 30.35C52.9899 30.37 53.6599 31.06 53.6499 31.92C53.6399 32.77 52.9699 33.42 52.0899 33.45C51.5699 33.46 51.0599 33.45 50.5399 33.45H50.5299Z" fill="white"/>
<path d="M50.5603 39.6702C50.0403 39.6702 49.5203 39.6802 49.0103 39.6702C48.1203 39.6502 47.4603 38.9902 47.4503 38.1402C47.4403 37.2702 48.1003 36.5802 49.0203 36.5702C50.0503 36.5502 51.0903 36.5502 52.1203 36.5702C53.0103 36.5902 53.6603 37.2702 53.6603 38.1202C53.6603 38.9702 53.0003 39.6402 52.1203 39.6702C51.6003 39.6902 51.0903 39.6702 50.5703 39.6702H50.5603Z" fill="white"/>
<path d="M50.5399 45.8799C50.0199 45.8799 49.4999 45.8899 48.9899 45.8799C48.1099 45.8499 47.4499 45.1799 47.4399 44.3399C47.4399 43.4899 48.0899 42.8099 48.9799 42.7899C50.0299 42.7699 51.0799 42.7699 52.1299 42.7899C53.0099 42.8099 53.6599 43.5099 53.6499 44.3599C53.6399 45.2099 52.9799 45.8599 52.0899 45.8899C51.5699 45.8999 51.0599 45.8899 50.5399 45.8899V45.8799Z" fill="white"/>
</svg>
