<svg width="79" height="79" viewBox="0 0 79 79" fill="none" xmlns="http://www.w3.org/2000/svg">
<g clip-path="url(#clip0_8_1298)">
<path d="M78.54 0H0V78.54H78.54V0Z" fill="#776B64"/>
<path d="M48.76 54.1998C48.76 59.4198 44.51 63.6898 39.27 63.6898C34.03 63.6898 29.78 59.4198 29.78 54.1998C29.78 48.9798 34.03 44.7098 39.27 44.7098C44.51 44.7098 48.76 48.9598 48.76 54.1998ZM62.47 13.3798L62.9 10.8198H50.73C50.75 13.0998 49.86 30.9398 39.27 36.2798C28.68 30.9398 27.81 13.0998 27.83 10.8198H15.64L16.05 13.3798C16.19 14.1498 19.16 30.8498 35.21 39.2698V41.4798C29.46 43.3698 25.74 48.3498 25.74 54.1798C25.74 61.6598 31.79 67.7098 39.27 67.7098C46.75 67.7098 52.8 61.6598 52.8 54.1798C52.8 48.3498 49.1 43.3698 43.33 41.4798V39.2698C59.38 30.8598 62.35 14.1598 62.47 13.3798ZM38.68 48.5998L37.74 51.4498C37.66 51.6898 37.41 51.8798 37.15 51.8798H34.18C33.59 51.8798 33.35 52.6298 33.81 52.9998L36.23 54.7698C36.45 54.9298 36.53 55.1998 36.45 55.4598L35.51 58.2998C35.33 58.8698 35.98 59.3398 36.47 58.9898L38.89 57.2198C39.11 57.0598 39.4 57.0598 39.62 57.2198L42.04 58.9898C42.53 59.3398 43.18 58.8698 42.99 58.2998L42.05 55.4598C41.97 55.2198 42.05 54.9298 42.27 54.7698L44.69 52.9998C45.18 52.6498 44.93 51.8798 44.32 51.8798H41.33C41.06 51.8798 40.82 51.7198 40.74 51.4498L39.81 48.5998C39.65 48.0298 38.83 48.0298 38.65 48.5998H38.68Z" fill="white"/>
</g>
<defs>
<clipPath id="clip0_8_1298">
<rect width="78.54" height="78.54" fill="white"/>
</clipPath>
</defs>
</svg>
