<svg width="79" height="79" viewBox="0 0 79 79" fill="none" xmlns="http://www.w3.org/2000/svg">
<g clip-path="url(#clip0_8_1304)">
<path d="M78.54 0H0V78.54H78.54V0Z" fill="#776B64"/>
<path d="M18.15 60.3901V31.5901H60.39V60.3901H18.15ZM54.65 21.9901V14.3101H48.89V21.9901H29.65V14.3101H23.91V21.9901H14.31V64.2301H64.23V21.9901H54.65ZM35.72 54.6301H42.73V47.6201H35.72V54.6301ZM23.87 54.6301H30.88V47.6201H23.87V54.6301ZM47.58 44.3601H54.59V37.3501H47.58V44.3601ZM35.72 44.3601H42.73V37.3501H35.72V44.3601ZM23.87 44.3601H30.88V37.3501H23.87V44.3601Z" fill="white"/>
</g>
<defs>
<clipPath id="clip0_8_1304">
<rect width="78.54" height="78.54" fill="white"/>
</clipPath>
</defs>
</svg>
