<svg width="70" height="70" viewBox="0 0 70 70" fill="none" xmlns="http://www.w3.org/2000/svg">
<path d="M70 0H0V70H70V0Z" fill="#776B64"/>
<path d="M40.4198 36.8297C40.4198 38.5897 40.7298 40.2697 41.4698 41.8497C43.2298 45.5697 46.1398 47.8597 50.1898 48.6597C50.5098 48.7197 50.6798 48.8497 50.7598 49.1697C50.9998 50.0797 51.4098 50.9597 51.5098 51.8897C51.7898 54.3397 49.9398 56.3497 47.4698 56.3497C41.7598 56.3597 36.0398 56.3497 30.3298 56.3497C25.5398 56.3497 20.7598 56.3497 15.9698 56.3497C13.7498 56.3497 12.0698 54.8497 11.8698 52.6397C11.8198 52.0997 11.9098 51.5197 12.0698 50.9997C13.1398 47.5597 14.2398 44.1297 15.3498 40.7097C16.4398 37.3697 19.9298 35.6397 23.2098 36.8297C28.7898 38.8597 34.3698 38.8997 39.9698 36.8997C40.0598 36.8697 40.1598 36.8397 40.2598 36.8097C40.2898 36.8097 40.3298 36.8097 40.4198 36.8097V36.8297Z" fill="white"/>
<path d="M21.2898 24.03C21.3098 18.27 25.9698 13.63 31.7298 13.65C37.5098 13.67 42.1598 18.36 42.1298 24.13C42.0998 29.87 37.3998 34.52 31.6498 34.49C25.8998 34.47 21.2698 29.78 21.2798 24.02L21.2898 24.03Z" fill="white"/>
<path d="M62.1298 37.0197C62.1098 42.4797 57.6898 46.8597 52.2198 46.8297C46.8098 46.8097 42.4298 42.3597 42.4498 36.9197C42.4798 31.5197 46.8998 27.1397 52.3098 27.1597C57.7498 27.1797 62.1498 31.5897 62.1298 37.0197ZM50.2098 31.9797C50.3598 34.0097 50.4898 35.8197 50.6398 37.6297C50.7098 38.4797 51.4198 39.1197 52.2598 39.1397C53.0998 39.1597 53.8898 38.5497 53.9598 37.7197C54.1298 35.7597 54.2898 33.7997 54.3698 31.8297C54.4198 30.6897 53.4298 29.8097 52.2998 29.7997C51.2198 29.7897 50.0698 30.7197 50.2098 31.9797ZM50.3198 42.1997C50.3198 43.3097 51.1898 44.1997 52.2798 44.1897C53.3498 44.1897 54.2398 43.3097 54.2498 42.2397C54.2698 41.1697 53.3898 40.2697 52.3198 40.2497C51.1998 40.2297 50.3198 41.0797 50.3098 42.1897L50.3198 42.1997Z" fill="white"/>
</svg>
