<svg width="70" height="70" viewBox="0 0 70 70" fill="none" xmlns="http://www.w3.org/2000/svg">
<path d="M70 0H0V70H70V0Z" fill="#776B64"/>
<path d="M34.1299 25.5599H24.2299V22.7399H24.7799C28.7599 22.7399 32.7399 22.7399 36.7099 22.7399C36.9399 22.7399 37.1999 22.6599 37.3999 22.5299C40.6299 20.4199 44.1299 19.7299 47.8899 20.4799C48.6599 20.6299 49.4099 20.8899 50.1699 21.0899V13.9399H16.4599C16.4599 14.0799 16.4399 14.1799 16.4399 14.2899C16.4399 26.3299 16.4399 38.3699 16.4399 50.4099C16.4399 53.0899 18.3099 55.4099 20.8499 55.9399C21.2899 56.0299 21.7499 56.0699 22.1999 56.0699C29.5999 56.0699 36.9899 56.0699 44.3899 56.0699C46.8999 56.0699 48.6999 54.8999 49.7599 52.5499C50.3699 51.1899 50.1499 49.7399 50.1799 48.2699C50.0199 48.3199 49.9099 48.3499 49.7999 48.3899C47.6699 49.1599 45.4799 49.4599 43.2599 49.0999C37.7299 48.1999 33.9099 45.0399 31.8399 39.6799C31.7199 39.3699 31.5899 39.2399 31.2499 39.2499C29.0599 39.2699 26.8799 39.2499 24.6899 39.2499H24.2099V36.4099H31.0499V32.4299H24.2199V29.5699C24.4099 29.5699 24.5699 29.5699 24.7299 29.5699C26.9799 29.5699 29.2199 29.5699 31.4699 29.5699C31.6299 29.5699 31.8899 29.4999 31.9399 29.3899C32.4799 28.0599 33.1699 26.8199 34.1199 25.5799L34.1299 25.5599Z" fill="white"/>
<path d="M61.5401 48.4C60.6501 49.34 59.7601 50.28 58.8401 51.26C56.4801 48.82 54.1801 46.45 51.9001 44.09C46.2801 48.31 39.2401 46.26 35.9801 41.66C32.6801 37.01 33.0901 30.64 37.0101 26.52C40.9001 22.43 47.1701 21.88 51.7001 25.2C56.3201 28.59 58.1301 35.51 54.5701 41.18C54.6301 41.25 54.6901 41.33 54.7601 41.41C56.9301 43.64 59.1001 45.88 61.2701 48.11C61.3501 48.19 61.4501 48.25 61.5401 48.32V48.41V48.4ZM45.1001 25.87C40.3701 25.87 36.5301 29.82 36.5201 34.68C36.5201 39.57 40.3601 43.53 45.1101 43.52C49.8401 43.51 53.6801 39.54 53.6801 34.69C53.6801 29.83 49.8101 25.87 45.1001 25.87Z" fill="white"/>
<path d="M34.1297 25.5599C33.1797 26.7999 32.4897 28.0399 31.9497 29.3699C31.8997 29.4799 31.6397 29.5499 31.4797 29.5499C29.2297 29.5599 26.9897 29.5499 24.7397 29.5499C24.5797 29.5499 24.4197 29.5499 24.2297 29.5499V32.4099H31.0597V36.3899H24.2197V39.2299H24.6997C26.8897 39.2299 29.0697 39.2299 31.2597 39.2299C31.5997 39.2299 31.7297 39.3499 31.8497 39.6599C33.9297 45.0199 37.7397 48.1799 43.2697 49.0799C45.4897 49.4399 47.6897 49.1399 49.8097 48.3699C49.9197 48.3299 50.0297 48.2999 50.1897 48.2499C50.1597 49.7199 50.3797 51.1699 49.7697 52.5299C48.7097 54.8799 46.9097 56.0499 44.3997 56.0499C36.9997 56.0499 29.6097 56.0499 22.2097 56.0499C21.7597 56.0499 21.2997 56.0099 20.8597 55.9199C18.3197 55.3899 16.4497 53.0699 16.4497 50.3899C16.4497 38.3499 16.4497 26.3099 16.4497 14.2699C16.4497 14.1699 16.4497 14.0599 16.4697 13.9199H50.1697V21.0699C49.4097 20.8599 48.6597 20.6099 47.8897 20.4599C44.1297 19.6999 40.6397 20.3899 37.3997 22.5099C37.1997 22.6399 36.9397 22.7199 36.7097 22.7199C32.7297 22.7299 28.7497 22.7199 24.7797 22.7199H24.2297V25.5399H34.1297V25.5599Z" fill="white"/>
</svg>
