<svg width="79" height="79" viewBox="0 0 79 79" fill="none" xmlns="http://www.w3.org/2000/svg">
<g clip-path="url(#clip0_8_1295)">
<path d="M78.54 0H0V78.54H78.54V0Z" fill="#776B64"/>
<path d="M24.44 38.2699V42.5099H45.62V38.2699H24.44ZM39.27 20.1199C37.26 20.1199 35.65 18.4899 35.65 16.4999C35.65 14.5099 37.26 12.8599 39.27 12.8599C41.28 12.8599 42.89 14.4899 42.89 16.4799C42.89 18.4699 41.28 20.1199 39.27 20.1199ZM54.09 20.0599C53.39 17.6399 50.68 15.8899 48.03 15.8899H47.12C46.84 11.8499 43.39 8.62988 39.26 8.62988C35.13 8.62988 31.68 11.8499 31.4 15.9199H30.49C27.84 15.9199 25.13 17.6799 24.43 20.0699H15.96V67.9299H20.2V24.2899H24.44V28.5299H54.09V24.2899H58.33V67.9199H62.57V20.0599H54.1H54.09ZM24.44 59.4499H43.52V55.2099H24.44V59.4499ZM24.44 50.9799H54.09V46.7399H24.44V50.9799Z" fill="white"/>
</g>
<defs>
<clipPath id="clip0_8_1295">
<rect width="78.54" height="78.54" fill="white"/>
</clipPath>
</defs>
</svg>
