<svg width="79" height="79" viewBox="0 0 79 79" fill="none" xmlns="http://www.w3.org/2000/svg">
<g clip-path="url(#clip0_8_1286)">
<path d="M78.54 0H0V78.54H78.54V0Z" fill="#776B64"/>
<path d="M61.31 36.65C60.33 35.64 59.32 34.61 58.34 33.56C58.19 33.4 58.15 33.08 58.15 32.83C58.14 28.09 58.15 23.34 58.15 18.6C58.15 17.57 58.09 17.51 57.07 17.51C42.94 17.51 28.8 17.51 14.67 17.51C14.67 25.86 14.67 34.22 14.67 42.57C14.67 42.77 14.67 42.98 14.67 43.26H36.41C36.3 47.83 37.88 51.61 41.38 54.46C44.88 57.32 48.91 58.08 53.32 57.08V59.63H19.51C19.51 58.59 19.55 56.54 19.55 56.54V54.55C19.55 54.55 23.56 54.45 24.39 54.44C25.75 54.43 27.12 54.44 28.52 54.44V48.34C28.27 48.34 28.03 48.34 27.8 48.34C22.35 48.34 16.9 48.34 11.45 48.34C11.45 36.99 11.45 25.64 11.45 14.29C28.08 14.29 44.71 14.29 61.34 14.29C61.37 21.63 61.36 28.96 61.35 36.3C61.35 36.45 61.32 36.61 61.32 36.65H61.31Z" fill="white"/>
<path d="M70.71 61.6198C71.3 60.9198 71.22 60.5098 70.45 59.7698C68.81 58.1698 67.15 56.5798 65.52 54.9698C65.46 54.8698 65.38 54.7798 65.32 54.6798C64.6 53.5198 63.99 53.2498 63.25 53.7998C63.12 53.8598 62.98 53.9298 62.83 54.0498L59.48 50.3798C63.31 44.4498 60.85 37.4998 56.19 34.4498C51.43 31.3398 45.11 32.1398 41.29 36.4098C36.33 41.9498 37.71 51.3698 45.66 54.7298C46.02 54.8798 46.4 55.0098 46.78 55.1098C50.8 56.1198 54.32 55.2398 57.46 52.6698C58.53 53.8498 59.58 54.9998 60.69 56.2198C60.55 56.4098 60.48 56.5898 60.48 56.7698C60.24 57.3998 60.66 57.8398 61.99 58.8098C63.44 60.3798 64.9 61.9398 66.33 63.5298C66.77 64.0198 67.21 64.3698 67.8 64.2098C68.08 64.2098 68.36 64.0498 68.66 63.7498C69.13 63.2798 69.59 62.7998 70.05 62.3298L70.58 61.8198C70.64 61.7498 70.68 61.6798 70.73 61.6098L70.71 61.6198ZM49.81 52.1798C45.32 52.1698 41.7 48.5098 41.72 43.9998C41.74 39.4698 45.39 35.8598 49.94 35.8898C54.38 35.9198 58.02 39.5798 58.02 44.0398C58.02 48.5398 54.34 52.1898 49.81 52.1798Z" fill="white"/>
<path d="M33.85 29.5801H29.62V39.7601H33.85V29.5801Z" fill="white"/>
<path d="M52.48 21.0303H48.27V30.6803H52.48V21.0303Z" fill="white"/>
<path d="M38.95 25.25C40.29 25.25 41.58 25.25 42.88 25.27C42.99 25.27 43.2 25.52 43.2 25.66C43.22 27.88 43.22 30.11 43.2 32.33C41.54 33.28 40.17 34.53 38.95 36.14V25.26V25.25Z" fill="white"/>
<path d="M24.53 33.8198H20.29V39.7498H24.53V33.8198Z" fill="white"/>
</g>
<defs>
<clipPath id="clip0_8_1286">
<rect width="78.54" height="78.54" fill="white"/>
</clipPath>
</defs>
</svg>
