<svg width="70" height="70" viewBox="0 0 70 70" fill="none" xmlns="http://www.w3.org/2000/svg">
<path d="M70 0H0V70H70V0Z" fill="#776B64"/>
<path d="M51.4799 13.4902C51.9999 13.7302 52.1399 14.1602 52.1599 14.7102C52.2099 16.1902 51.7699 17.4002 50.5199 18.2702C50.4199 18.3402 50.3699 18.5602 50.3699 18.7002C50.3399 20.1302 50.3699 21.5602 50.2999 22.9802C50.1699 25.5002 49.2799 27.7502 47.7599 29.7502C46.5799 31.3002 45.0199 32.4702 43.6099 33.7902C43.1799 34.1902 42.7399 34.5702 42.2799 34.9902C42.9799 35.6202 43.6699 36.2102 44.3299 36.8402C45.4399 37.9002 46.6099 38.9202 47.6099 40.0802C49.0799 41.7802 49.9499 43.8102 50.1899 46.0402C50.3699 47.7302 50.3199 49.4502 50.3599 51.1502C50.3599 51.4702 50.4399 51.6702 50.7199 51.8702C51.6199 52.5302 52.0899 53.4402 52.1499 54.5502C52.1699 54.8602 52.1599 55.1702 52.1499 55.4702C52.1299 56.1302 51.7899 56.4602 51.1199 56.4802C51.0199 56.4802 50.9199 56.4802 50.8299 56.4802C40.9599 56.4802 31.0899 56.4802 21.2199 56.4802C20.1599 56.4802 19.9199 56.2202 19.8899 55.1702C19.8399 53.7202 20.3099 52.5402 21.5199 51.6902C21.6199 51.6202 21.6699 51.4002 21.6699 51.2602C21.6999 49.8302 21.6699 48.4002 21.7399 46.9802C21.8699 44.4602 22.7599 42.2102 24.2799 40.2102C25.4699 38.6302 27.0599 37.4602 28.4899 36.1202C28.8999 35.7402 29.3199 35.3702 29.7599 34.9702C29.0599 34.3402 28.3699 33.7502 27.7099 33.1202C26.5999 32.0602 25.4299 31.0402 24.4299 29.8802C22.9599 28.1802 22.0899 26.1502 21.8499 23.9202C21.6699 22.2302 21.7199 20.5102 21.6799 18.8102C21.6799 18.4902 21.5999 18.2902 21.3199 18.0902C20.4099 17.4202 19.9399 16.4902 19.8899 15.3602C19.8799 15.1402 19.8899 14.9102 19.8899 14.6902C19.8499 14.1302 20.0399 13.7102 20.5599 13.4702H51.4799V13.4902ZM25.2799 18.8902C25.2799 20.0902 25.2499 21.2502 25.2799 22.4102C25.3599 24.7902 26.2199 26.8702 27.9499 28.5202C29.7199 30.2102 31.5699 31.8202 33.3899 33.4602C34.5099 34.4702 34.5099 35.5502 33.3899 36.5702C31.7099 38.0802 30.0399 39.5802 28.3699 41.0902C26.7799 42.5302 25.6799 44.2702 25.4399 46.4102C25.2599 47.9502 25.3299 49.5102 25.2899 51.0602C25.2899 51.0802 25.3199 51.1002 25.3499 51.1402C25.9499 51.1402 26.5699 51.1302 27.1799 51.1402C27.4299 51.1402 27.5799 51.0602 27.7299 50.8602C28.8899 49.3002 30.0599 47.7502 31.2299 46.1902C32.5599 44.4202 33.8799 42.6502 35.2099 40.8802C35.5899 40.3802 36.1199 40.2502 36.5599 40.5702C36.7099 40.6802 36.8299 40.8502 36.9499 41.0002C39.4099 44.2802 41.8699 47.5602 44.3399 50.8402C44.4299 50.9602 44.5799 51.1102 44.7099 51.1202C45.3899 51.1502 46.0699 51.1302 46.7899 51.1302C46.7899 49.9402 46.8199 48.8002 46.7899 47.6602C46.7099 45.2502 45.8499 43.1402 44.0999 41.4802C42.3199 39.7902 40.4699 38.1902 38.6699 36.5302C38.4099 36.2902 38.1499 36.0002 37.9999 35.6902C37.6499 34.9502 37.8799 34.1802 38.5799 33.5502C40.2799 32.0102 41.9899 30.4802 43.6999 28.9402C44.5099 28.2102 45.1699 27.3802 45.7099 26.4302C47.0699 24.0602 46.7899 21.4702 46.7899 18.8902H25.2999H25.2799Z" fill="white"/>
<path d="M43.1499 26.98C43.0199 27.2 42.9199 27.46 42.7399 27.63C40.7399 29.49 38.7399 31.34 36.7299 33.19C36.2499 33.64 35.7999 33.64 35.3199 33.19C33.3099 31.34 31.2999 29.49 29.2999 27.64C29.0099 27.37 28.8799 27.04 29.0099 26.66C29.1399 26.25 29.4599 26.07 29.8699 26.04C29.9499 26.04 30.0399 26.04 30.1199 26.04C34.0499 26.04 37.9899 26.04 41.9199 26.04C42.0899 26.04 42.2599 26.05 42.4199 26.09C42.8299 26.19 43.0799 26.53 43.1499 26.99V26.98Z" fill="white"/>
</svg>
