<svg width="71" height="64" viewBox="0 0 71 64" fill="none" xmlns="http://www.w3.org/2000/svg">
<g clip-path="url(#clip0_6_95)">
<path d="M63.64 33.44L62.65 34.25V34.32C61.61 34.09 59.36 33.48 57.23 32.04C53.66 29.61 52.11 25.93 52.59 21.09L47.8 20.61C46.48 33.51 56.75 38.38 62.47 39.19V39.24C62.22 39.77 59.48 45.2 52.59 47.05C46.73 48.62 40.22 47.15 39.03 46.85L38.98 46.83C39.08 45.87 39.41 44.8 40.1 44.04C41.14 42.9 42.96 42.42 45.55 42.59L45.91 37.8C41.75 37.5 38.58 38.53 36.51 40.84C34.15 43.5 34.03 46.95 34.15 48.72C33.11 48.97 31.89 49.1 30.65 48.92C26.39 48.31 24.92 45.42 24.82 45.22L24.16 43.7H24.11C23.96 39.9 22.18 34.07 14.35 28.67L11.66 32.62C17.77 36.83 19.14 41.08 19.31 43.7C14.72 43.34 6.63998 41.65 5.08998 34.32C2.98998 24.36 12.67 19.06 13.07 18.84L14.13 18.28L14.33 17.11C14.41 16.7 16.13 6.99999 24.93 5.14999C31.22 3.82999 36.41 6.71999 39.2 8.76999C36.99 11.51 32.23 15.66 23.46 15.66H23.31L23.28 20.48H23.46C26.43 20.48 29.01 20.1 31.27 19.44C30.71 21.9 30.61 24.96 31.68 28.69L36.29 27.37C34.44 20.93 37.18 17.26 37.91 16.4C40.16 14.9 41.81 13.21 42.95 11.76L44.14 11.2C44.21 11.18 50.93 8.12999 56.2 11.78C61.07 15.15 59.9 20.85 59.85 21.08L59.34 23.39L61.65 23.95C62.59 24.18 65.2 25.17 65.86 27.02C67.1 30.49 63.76 33.33 63.63 33.43L63.64 33.44ZM70.4 25.43C69.34 22.44 66.7 20.82 64.82 19.98C64.95 16.99 64.31 11.54 58.97 7.83999C53.22 3.85999 46.68 5.24999 43.71 6.23999C40.92 3.77999 33.6 -1.57001 23.97 0.43999C13.86 2.53999 10.66 11.85 9.82998 15.17C5.13998 18.08 -1.73002 25.23 0.399983 35.34C2.64998 46.01 14.36 48.67 21.36 48.62C22.6 50.32 25.24 52.98 30.03 53.64C33.91 54.17 37.33 52.83 39.05 51.99C40.27 52.42 42.37 53.11 44.9 53.54C47.89 54.25 49.21 56.91 49.21 63.35H58.28C58.43 61.55 58.96 58.92 59.17 57.5C59.98 51.67 61.68 50 62.21 49.36C67 44.85 67.58 38.87 67.58 36.31C69.2 34.59 72.19 30.53 70.39 25.44L70.4 25.43Z" fill="white"/>
</g>
<defs>
<clipPath id="clip0_6_95">
<rect width="70.96" height="63.35" fill="white"/>
</clipPath>
</defs>
</svg>
