<svg width="32" height="32" viewBox="0 0 32 32" fill="none" xmlns="http://www.w3.org/2000/svg">
<path d="M28.33 6.17C28.33 3.72 26.99 2.26 24.76 2.26C23.29 2.26 21.52 3.04 21.52 6.8H19.25C19.25 5.1 18.83 2.26 16.01 2.26C13.78 2.26 12.44 3.72 12.44 6.17C12.44 8.39 13.89 9.54 16.25 11.24C17.73 12.31 19.34 13.46 20.39 15.14C21.43 13.44 23.05 12.28 24.55 11.21C26.9 9.53 28.34 8.39 28.34 6.18L28.33 6.17ZM30.6 6.17C30.6 9.65 28.08 11.46 25.86 13.05C23.84 14.5 22.06 15.78 21.63 18.13H19.14C18.7 15.81 16.93 14.53 14.92 13.08C12.7 11.48 10.17 9.66 10.17 6.18C10.17 2.49 12.52 0 16.01 0C17.92 0 19.43 0.83 20.38 2.31C21.33 0.83 22.84 0 24.75 0C28.24 0 30.59 2.48 30.59 6.18L30.6 6.17ZM31.72 25.93C30.58 26.43 29.03 27.23 28.58 27.43C25.87 28.6 18.66 31.72 16.1 31.72C12.45 31.72 8.82 29.07 4.87 29.07C2.4 29.07 0 29.67 0 29.67V20.48H2.32C4.04 20.48 4.73 19.55 6.1 18.33C7.6 17 10.26 17.07 12.66 18.06C15.06 19.05 19.16 20.1 20.37 20.46C21.1 20.68 22.36 21.12 22.78 21.45L22.52 23.09C22.1 23.17 21.12 23.23 19.68 23.16C18.28 23.09 15.94 22.94 14.86 22.88C14.53 22.86 14.24 23.08 14.17 23.4C14.1 23.72 14.27 24.03 14.58 24.16C15.14 24.39 16.11 24.68 17.28 25.09C20.76 26.31 23.38 26.21 25.46 25.67C27.55 25.13 29.73 24.11 31.25 24.79L31.71 25.95L31.72 25.93Z" fill="black"/>
</svg>
