<svg width="34" height="34" viewBox="0 0 34 34" fill="none" xmlns="http://www.w3.org/2000/svg">
<g clip-path="url(#clip0_9_9195)">
<path d="M15.45 29.6H18.03V26.07H15.45V29.6ZM24.46 29.6H27.04V26.07H24.46V29.6ZM19.96 29.6H22.52V26.07H19.96V29.6ZM15.45 23.49H18.03V19.96H15.45V23.49ZM24.46 23.49H27.04V19.96H24.46V23.49ZM19.96 23.49H22.52V19.96H19.96V23.49ZM15.45 11.24H18.03V7.72H15.45V11.24ZM15.45 17.37H18.03V13.84H15.45V17.37ZM24.46 11.24H27.04V7.72H24.46V11.24ZM24.46 17.37H27.04V13.84H24.46V17.37ZM19.96 11.24H22.52V7.72H19.96V11.24ZM19.96 17.37H22.52V13.84H19.96V17.37ZM6.44 17.37H3.88V13.84H6.44V17.37ZM6.44 23.49H3.88V19.96H6.44V23.49ZM6.44 29.6H3.88V26.07H6.44V29.6ZM9.01 0V10.96H0V33.48H11.59V2.58H30.9V33.47H33.48V0H9.01Z" fill="#D91700"/>
</g>
<defs>
<clipPath id="clip0_9_9195">
<rect width="33.48" height="33.48" fill="white"/>
</clipPath>
</defs>
</svg>
