<svg width="37" height="34" viewBox="0 0 37 34" fill="none" xmlns="http://www.w3.org/2000/svg">
<g clip-path="url(#clip0_9_9199)">
<path d="M17.09 28.38C16.66 28.47 11.05 29.52 9.98 25.41C9.6 23.92 8.93 20.43 8.93 20.43C8.93 20.43 8.36 22.8 8.36 26.11C8.36 29.99 9.31 33.93 9.31 33.93H0C0 26.5 1.39 12.5 7.94 12.5H7.98C9.83 12.5 10.75 13.82 11.16 15.6C11.88 18.76 12.45 21.79 13.25 23.07C14.06 24.37 16.77 24.4 17.09 24.4V28.38ZM27.52 33.92C27.52 33.92 28.47 29.97 28.47 26.1C28.47 22.79 27.9 20.42 27.9 20.42C27.9 20.42 27.24 23.9 26.85 25.4C25.8 29.46 20.29 28.49 19.71 28.38V24.4C20.1 24.4 22.77 24.35 23.58 23.07C24.38 21.78 24.95 18.76 25.67 15.6C26.08 13.8 27 12.5 28.85 12.5H28.89C35.44 12.5 36.83 26.5 36.83 33.93H27.52V33.92ZM11.81 5.38C11.81 6.89 10.57 8.13 9.06 8.13C7.55 8.13 6.31 6.89 6.31 5.38C6.31 3.87 7.55 2.63 9.06 2.63C10.57 2.63 11.81 3.87 11.81 5.38ZM14.44 5.38C14.44 2.42 12.03 0 9.06 0C6.09 0 3.68 2.41 3.68 5.38C3.68 8.35 6.09 10.76 9.06 10.76C12.03 10.76 14.44 8.34 14.44 5.38ZM30.35 5.38C30.35 6.89 29.11 8.13 27.6 8.13C26.09 8.13 24.85 6.89 24.85 5.38C24.85 3.87 26.09 2.63 27.6 2.63C29.11 2.63 30.35 3.87 30.35 5.38ZM32.98 5.38C32.98 2.42 30.57 0 27.6 0C24.63 0 22.22 2.41 22.22 5.38C22.22 8.35 24.63 10.76 27.6 10.76C30.57 10.76 32.98 8.34 32.98 5.38Z" fill="#D91700"/>
</g>
<defs>
<clipPath id="clip0_9_9199">
<rect width="36.83" height="33.94" fill="white"/>
</clipPath>
</defs>
</svg>
