<svg width="36" height="36" viewBox="0 0 36 36" fill="none" xmlns="http://www.w3.org/2000/svg">
<g clip-path="url(#clip0_9_9201)">
<path d="M7.28996 11.8C7.28996 13.13 6.20996 14.21 4.88996 14.21C3.56996 14.21 2.47996 13.13 2.47996 11.8C2.47996 10.47 3.55996 9.39 4.88996 9.39C6.21996 9.39 7.28996 10.47 7.28996 11.8ZM9.76996 11.8C9.76996 9.1 7.58996 6.92 4.88996 6.92C2.18996 6.92 -3.64794e-05 9.11 -3.64794e-05 11.8C-3.64794e-05 14.49 2.17996 16.68 4.87996 16.68C7.57996 16.68 9.75996 14.5 9.75996 11.8H9.76996ZM35.12 35.14H-3.64794e-05C-3.64794e-05 35.14 -0.0600365 31.7 0.189964 26.36C0.619964 20.83 1.55996 18.44 4.87996 18.44C8.19996 18.44 8.80996 21.6 9.29996 24.21L9.84996 21.6C10.65 18.01 13.83 15.78 17.51 15.78H17.53C21.21 15.78 24.38 18.01 25.19 21.6L25.79 24.42C26.29 21.77 26.87 18.43 30.26 18.43C33.65 18.43 34.53 20.81 34.95 26.35C35.19 31.7 35.11 35.13 35.11 35.13L35.12 35.14ZM30.24 9.39C31.57 9.39 32.65 10.47 32.65 11.8C32.65 13.13 31.57 14.21 30.24 14.21C28.91 14.21 27.84 13.13 27.84 11.8C27.84 10.47 28.92 9.39 30.24 9.39ZM30.24 16.68C32.94 16.68 35.12 14.48 35.12 11.8C35.12 9.12 32.94 6.91 30.24 6.91C27.54 6.91 25.36 9.11 25.36 11.79C25.36 14.47 27.56 16.68 30.24 16.68ZM17.55 2.51C19.97 2.51 21.95 4.48 21.95 6.92C21.95 9.36 19.98 11.32 17.55 11.32C15.12 11.32 13.16 9.35 13.16 6.92C13.16 4.49 15.13 2.51 17.55 2.51ZM17.55 13.83C21.37 13.83 24.45 10.73 24.45 6.92C24.45 3.11 21.35 0 17.55 0C13.75 0 10.65 3.1 10.65 6.92C10.65 10.74 13.74 13.83 17.55 13.83Z" fill="#D91700"/>
</g>
<defs>
<clipPath id="clip0_9_9201">
<rect width="35.13" height="35.14" fill="white"/>
</clipPath>
</defs>
</svg>
