<svg width="28" height="33" viewBox="0 0 28 33" fill="none" xmlns="http://www.w3.org/2000/svg">
<g clip-path="url(#clip0_9_9008)">
<path d="M25.5 19.7H9.17L6.5 23.18C5.16 24.74 2.32 24.06 2.32 21.82V2.32H25.5V19.71V19.7ZM0 0V31.72L2.32 32.45L10.32 22.02H27.82V0H0ZM7.63 12.89C8.66 12.89 9.5 12.06 9.5 11.02C9.5 9.98 8.67 9.15 7.63 9.15C6.59 9.15 5.76 9.98 5.76 11.02C5.76 12.06 6.59 12.89 7.63 12.89ZM20.64 12.89C21.67 12.89 22.51 12.06 22.51 11.02C22.51 9.98 21.68 9.15 20.64 9.15C19.6 9.15 18.77 9.98 18.77 11.02C18.76 12.04 19.6 12.89 20.64 12.89ZM14.13 12.89C15.16 12.89 16 12.06 16 11.02C16 9.98 15.17 9.15 14.13 9.15C13.09 9.15 12.26 9.98 12.26 11.02C12.26 12.06 13.09 12.89 14.13 12.89Z" fill="black"/>
</g>
<defs>
<clipPath id="clip0_9_9008">
<rect width="27.82" height="32.45" fill="white"/>
</clipPath>
</defs>
</svg>
