<svg width="32" height="37" viewBox="0 0 32 37" fill="none" xmlns="http://www.w3.org/2000/svg">
<g clip-path="url(#clip0_9_9197)">
<path d="M28.47 22H10.24L7.26 25.88C5.76 27.63 2.59 26.86 2.59 24.37V2.59H28.48V22H28.47ZM0 0V35.42L2.59 36.24L11.52 24.59H31.06V0H0ZM8.52 14.39C9.67 14.39 10.6 13.46 10.6 12.31C10.6 11.16 9.67 10.23 8.52 10.23C7.37 10.23 6.44 11.16 6.44 12.31C6.44 13.46 7.37 14.39 8.52 14.39ZM23.05 14.39C24.2 14.39 25.13 13.46 25.13 12.31C25.13 11.16 24.2 10.23 23.05 10.23C21.9 10.23 20.97 11.16 20.97 12.31C20.96 13.45 21.9 14.39 23.05 14.39ZM15.78 14.39C16.93 14.39 17.86 13.46 17.86 12.31C17.86 11.16 16.93 10.23 15.78 10.23C14.63 10.23 13.7 11.16 13.7 12.31C13.7 13.46 14.63 14.39 15.78 14.39Z" fill="#D91700"/>
</g>
<defs>
<clipPath id="clip0_9_9197">
<rect width="31.06" height="36.24" fill="white"/>
</clipPath>
</defs>
</svg>
