<svg width="60" height="55" viewBox="0 0 60 55" fill="none" xmlns="http://www.w3.org/2000/svg">
<g clip-path="url(#clip0_2003_695)">
<path d="M27.49 39.1998C27.49 41.0798 27.53 42.8798 27.45 44.6798C27.44 44.9998 26.94 45.5598 26.66 45.5698C24.86 45.5998 23.03 45.7098 21.27 45.4198C18.33 44.9398 16.49 43.1098 15.86 40.1498C15.4 37.9998 14.95 35.8498 14.49 33.6798C13.73 34.8298 13.17 39.5698 13.51 43.7898C13.79 47.2398 14.32 50.6698 14.75 54.2198H0C0.23 45.0098 0.72 35.8998 4.32 27.2998C4.94 25.8298 5.83 24.4498 6.79 23.1698C7.45 22.2898 8.35 21.5298 9.3 20.9598C12.98 18.7398 16.67 20.2198 17.78 24.3398C18.38 26.5598 18.79 28.8198 19.34 31.0498C19.68 32.4198 20.12 33.7698 20.49 35.1398C21.1 37.4198 22.72 38.4798 24.94 38.8198C25.75 38.9398 26.57 39.0598 27.49 39.1998Z" fill="white"/>
<path d="M59 54.4098C58.53 54.4098 58.1 54.4098 57.67 54.4098C53.22 54.4098 48.76 54.4098 44.17 54.4098C45.61 47.4098 46.3 40.5098 44.7 33.5398C44.22 35.7298 43.71 37.9098 43.27 40.0998C42.67 43.0898 40.83 44.8998 37.9 45.4098C35.92 45.7498 33.86 45.6698 31.74 45.7798V39.2198C32.81 39.0298 33.9 38.8498 34.99 38.6298C36.83 38.2498 38.08 37.1698 38.56 35.3398C39.43 32.0298 40.26 28.7198 41.09 25.3998C41.64 23.1598 42.28 20.9498 44.85 20.2498C47.59 19.4998 49.86 20.4998 51.75 22.4698C54.35 25.1698 55.55 28.5898 56.52 32.0998C58.47 39.1798 59.05 46.4298 59.12 53.7398C59.12 53.9198 59.07 54.1098 59.02 54.4198L59 54.4098Z" fill="white"/>
<path d="M35.7 8.59C35.72 3.78 39.4799 0 44.2799 0C49.0999 0 52.95 3.86 52.93 8.69C52.91 13.43 49.07 17.27 44.32 17.3C39.5199 17.33 35.6899 13.45 35.7099 8.59H35.7ZM44.31 12.97C46.71 12.97 48.74 10.93 48.7 8.59C48.66 6.29 46.6499 4.3 44.3499 4.27C41.9499 4.24 39.94 6.22 39.93 8.62C39.93 11.07 41.85 12.98 44.31 12.97Z" fill="white"/>
<path d="M5.96004 8.61983C5.98004 3.74983 9.80004 -0.0401746 14.66 -0.000174573C19.46 0.0398254 23.23 3.92983 23.19 8.80983C23.15 13.4898 19.14 17.3898 14.46 17.2998C9.66004 17.2098 5.94004 13.4098 5.96004 8.60983V8.61983ZM14.57 12.9698C16.97 12.9698 19.03 10.9198 18.98 8.59983C18.93 6.28983 16.94 4.30983 14.63 4.26983C12.24 4.22983 10.2 6.21982 10.2 8.60983C10.2 11.0598 12.11 12.9798 14.57 12.9698Z" fill="white"/>
</g>
<defs>
<clipPath id="clip0_2003_695">
<rect width="59.1" height="54.41" fill="white"/>
</clipPath>
</defs>
</svg>
