<svg width="55" height="55" viewBox="0 0 55 55" fill="none" xmlns="http://www.w3.org/2000/svg">
<g clip-path="url(#clip0_2003_955)">
<path d="M15.07 19.17H26.51L30.2 11.83L38.11 29.91L45.16 19.17H52.12V14.64H42.69L38.88 20.42L30.48 1.2L23.73 14.64H15.05V19.17H15.07ZM36.28 42.94V46.09C36.28 48.4 36.53 49.85 40.74 49.85H45.32V54.38H9.06V49.87H13.66C17.87 49.87 18.12 48.42 18.12 46.11V42.94C18.12 41.31 16.99 40.79 15.13 40.79H0V0H19.38V4.53H4.53V36.26H49.88V29.42H54.39V40.8H39.3C37.44 40.8 36.29 41.34 36.29 42.95L36.28 42.94Z" fill="white"/>
</g>
<defs>
<clipPath id="clip0_2003_955">
<rect width="54.39" height="54.39" fill="white"/>
</clipPath>
</defs>
</svg>
